<svg
  xmlns="http://www.w3.org/2000/svg"
  width="48"
  height="32"
  viewBox="0 0 48 32"
>
  <g fill="none">
    <rect
      width="45.333"
      height="29.333"
      x="1.333"
      y="1.333"
      fill="#FFF"
      rx="2"
    />
    <path
      fill="#DDD"
      d="M44 1.333A2.67 2.67 0 0 1 46.667 4v24A2.67 2.67 0 0 1 44 30.667H4A2.67 2.67 0 0 1 1.333 28V4A2.67 2.67 0 0 1 4 1.333zM44 0H4a4.01 4.01 0 0 0-4 4v24a4.01 4.01 0 0 0 4 4h40a4.01 4.01 0 0 0 4-4V4a4.01 4.01 0 0 0-4-4"
    />
    <path
      fill="#DDD"
      d="M6.664 16.942h34.667v2.667H6.664zM6.664 23.091h34.667v2.667H6.664z"
    />
    <path
      fill="#FD6000"
      d="M6.664 13.568V7.903h2.491c.387-.017.773.035 1.142.153.263.104.483.294.625.54.156.256.236.552.233.853.01.376-.13.741-.387 1.016a1.95 1.95 0 0 1-1.195.525q.244.11.448.283.357.338.617.753l.978 1.542h-.936l-.744-1.179q-.325-.51-.536-.78a1.7 1.7 0 0 0-.378-.38 1.1 1.1 0 0 0-.338-.15 2 2 0 0 0-.414-.027h-.862v2.516zm.744-3.165h1.597c.27.01.54-.026.797-.106a.85.85 0 0 0 .438-.34.93.93 0 0 0 .15-.508.85.85 0 0 0-.29-.661 1.35 1.35 0 0 0-.914-.259H7.408zm7.61 1.843.714.09a1.76 1.76 0 0 1-.625.976 1.87 1.87 0 0 1-1.166.348 1.85 1.85 0 0 1-1.415-.554 2.18 2.18 0 0 1-.523-1.555 2.28 2.28 0 0 1 .528-1.608c.353-.38.854-.59 1.373-.571.505-.017.992.187 1.333.56.368.44.553 1.004.517 1.576q0 .062-.004.185h-3.035c-.002.38.133.748.38 1.036.219.236.528.367.85.36.232.006.46-.065.647-.202.203-.166.351-.39.426-.64m-2.264-1.124h2.272a1.4 1.4 0 0 0-.26-.777 1.06 1.06 0 0 0-.856-.402 1.1 1.1 0 0 0-.798.321c-.224.23-.352.537-.358.858M16.6 13.568V7.903h.69v3.23l1.633-1.669h.893l-1.556 1.522 1.713 2.582h-.851l-1.345-2.099-.487.472v1.627zM23.307 12.246l.714.09a1.76 1.76 0 0 1-.625.976 1.87 1.87 0 0 1-1.165.348 1.85 1.85 0 0 1-1.416-.554 2.18 2.18 0 0 1-.523-1.555 2.28 2.28 0 0 1 .528-1.608c.353-.381.854-.59 1.373-.571.505-.017.992.187 1.333.56.368.44.553 1.004.517 1.576q0 .062-.004.185h-3.035c-.002.38.133.748.38 1.036.219.236.529.367.85.36.232.006.46-.065.648-.202.202-.166.35-.39.425-.64m-2.264-1.124h2.272a1.4 1.4 0 0 0-.26-.777 1.06 1.06 0 0 0-.856-.402 1.1 1.1 0 0 0-.798.321c-.224.23-.351.537-.358.858m3.844 2.446V9.464h.62v.584a1.46 1.46 0 0 1 1.296-.676c.232-.003.462.042.676.133.184.071.344.192.462.35.107.154.18.329.215.513q.048.336.038.676v2.524h-.689v-2.496c.01-.215-.018-.43-.08-.636a.67.67 0 0 0-.286-.336.9.9 0 0 0-.481-.126 1.1 1.1 0 0 0-.76.283 1.4 1.4 0 0 0-.321 1.07v2.24zm4.368-4.865v-.8h.69v.8zm0 4.865V9.464h.69v4.104zm1.74 0V9.464h.62v.584a1.46 1.46 0 0 1 1.296-.676c.232-.003.462.042.676.133.184.071.344.192.463.35.107.154.18.329.214.513q.048.336.038.676v2.524h-.689v-2.496c.01-.215-.018-.43-.08-.636a.67.67 0 0 0-.286-.336.9.9 0 0 0-.481-.126 1.1 1.1 0 0 0-.76.283 1.4 1.4 0 0 0-.321 1.07v2.24zm4.24.34.67.1a.65.65 0 0 0 .234.456c.206.14.453.207.7.194.262.016.521-.052.74-.194a.95.95 0 0 0 .353-.54 4.5 4.5 0 0 0 .051-.893 1.42 1.42 0 0 1-1.127.537 1.53 1.53 0 0 1-1.3-.611 2.37 2.37 0 0 1-.46-1.464c-.003-.372.068-.74.211-1.084.125-.31.337-.577.612-.767.279-.184.607-.278.94-.27.468-.007.91.212 1.19.587v-.495h.635v3.547c.028.461-.037.924-.193 1.359-.133.27-.348.49-.613.631-.32.164-.676.244-1.034.232-.418.02-.83-.096-1.176-.33a1.12 1.12 0 0 1-.434-.995m.571-2.465a1.8 1.8 0 0 0 .318 1.178 1.043 1.043 0 0 0 1.593.002c.243-.335.357-.746.323-1.158.03-.406-.088-.81-.332-1.136a1.02 1.02 0 0 0-.8-.382 1 1 0 0 0-.78.377c-.237.322-.351.72-.322 1.119"
    />
  </g>
</svg>
