<svg
  xmlns="http://www.w3.org/2000/svg"
  width="43"
  height="15"
  fill="none"
  viewBox="0 0 43 15"
>
  <g fill="#fff" clip-path="url(#ef9__clip0_8225_96)">
    <path
      d="M11.88 0q1.468 0 2.607.58 1.136.58 1.778 1.676c.427.732.641 1.573.641 2.567q0 1.49-.64 2.588a4.14 4.14 0 0 1-1.78 1.654q-1.14.56-2.609.56h-3.62v4.863H5.11V9.624H0V7.078h5.111V0zm-.517 7.078q1.034 0 1.686-.61c.436-.407.653-.945.653-1.647q0-1.053-.631-1.655-.632-.6-1.708-.6H8.26v4.512zM17.98 0h2.98v14.487h-2.98zM29.55 9.956q0 .705-.25 1.23a1.87 1.87 0 0 1-.723.818 2.07 2.07 0 0 1-1.096.29q-.787 0-1.284-.527-.496-.528-.496-1.48v-6.23h-3.002v7.036c0 1.13.317 2.026.953 2.68q.953.983 2.504.982 1.222 0 2.1-.507.88-.507 1.355-1.48v1.717h2.96V4.056H29.55zM40.167 8.36q1.179.25 2.007.953l-.001-.005q.828.704.827 2.049 0 1.077-.61 1.852-.608.777-1.655 1.16-1.045.38-2.37.382-1.47 0-2.525-.436-1.055-.433-1.645-1.24a3.7 3.7 0 0 1-.694-1.863h3.002q.163.682.65 1.003.488.322 1.294.322.724 0 1.15-.269.422-.269.423-.745a.75.75 0 0 0-.269-.6q-.27-.228-.786-.35l-2.131-.456q-1.325-.289-2.163-1.004-.84-.714-.839-2.017.001-.993.58-1.759t1.573-1.159 2.298-.393q1.987 0 3.187.839 1.202.837 1.367 2.515h-2.98a1.6 1.6 0 0 0-.29-.663 1.2 1.2 0 0 0-.55-.394 2.3 2.3 0 0 0-.776-.123q-.64 0-1.045.28-.402.278-.403.714 0 .394.29.62.29.23.766.31z"
    />
  </g>
  <defs>
    <clipPath id="ef9__clip0_8225_96">
      <path fill="#000" d="M0 0h43v15H0z" />
    </clipPath>
  </defs>
</svg>
