<svg
  xmlns="http://www.w3.org/2000/svg"
  xml:space="preserve"
  width="135"
  height="40"
  viewBox="0 0 135 40"
>
  <path
    d="M101.8 19.2h-2.6v4.3h2.6c1.2 0 2.1-1 2.1-2.1.1-1.2-.9-2.2-2.1-2.2M98.5 8.3c-.9-.9-2.4-.9-3.3 0-.9 1-.9 2.5 0 3.4s2.4.9 3.3 0c.9-1 .9-2.4 0-3.4M61.1 7.7h-1.4000000000000001v4.5h1.1c.6 0 1.2-.2 1.6-.6s.7-1 .6-1.7c.1-1.1-.8-2.1-1.9-2.2"
  />
  <path
    d="M130 .8H5C2.7.8.8 2.7.8 5v30c0 2.3 1.9 4.2 4.2 4.2h125c2.3 0 4.2-1.9 4.2-4.2V5c0-2.3-1.9-4.2-4.2-4.2M101 7h2c.5 0 1 .2 1.3.5.7.7.8 1.8.1 2.5l-.1.1c-.4.3-.8.5-1.3.5h-1.3V13h-.7zM87.2 7h4.1v.7h-1.7V13h-.8V7.7h-1.7V7zm-4.4 0h3.5v.7h-2.7v1.9h2.5v.7h-2.5v1.9h2.7v.8h-3.5zm-18 0h3.5v.7h-2.7v1.9h2.5v.7h-2.5v1.9h2.7v.8h-3.5zm-11 0h4.1v.7h-1.7V13h-.8V7.7h-1.7V7zm-5.6 0h.9l2.9 4.7V7h.8v6H52l-3-4.9V13h-.8zm-6.4.8c1.2-1.2 3.2-1.2 4.4 0s1.2 3.2 0 4.4-3.2 1.2-4.4 0-1.2-3.2 0-4.4m10.5 20.6c-1.2 1.3-2.9 1.9-4.6 1.9h-.5c-3.6-.1-6.5-3.2-6.3-6.9.1-3.6 3.2-6.5 6.9-6.3 1.7 0 3.3.7 4.5 1.9L51 20.1c-.9-.8-2.1-1.3-3.3-1.3-2.7 0-4.8 2.1-4.8 4.8s2.1 4.8 4.8 4.8c1.2 0 2.5-.4 3.3-1.3.6-.6.9-1.4 1-2.3h-4.3V23h6.1c.1.4.1.8.1 1.1.1 1.6-.5 3.1-1.6 4.3m6.5 1.8c-2.3 0-4.3-1.9-4.3-4.2s1.9-4.3 4.2-4.3h.1c2.3 0 4.2 1.9 4.1 4.3.2 2.3-1.7 4.2-4.1 4.2m4.1-18c-.6.6-1.4.9-2.2.8h-1.8V7h1.8c.8 0 1.6.3 2.2.8.6.6.9 1.4.8 2.2.1.8-.2 1.6-.8 2.2m5.3 18c-2.3 0-4.3-1.9-4.3-4.2s1.9-4.3 4.2-4.3h.1c2.3 0 4.2 1.9 4.1 4.3.1 2.3-1.8 4.2-4.1 4.2m3-20-.9 1.1V13h-.8V7h.8v3.1L73 7h1l-2.2 2.6 2.4 3.4h-1zm10.1 19.4c0 3.1-1.8 4.4-4 4.4-1.7 0-3.1-1-3.8-2.5l1.6-.7c.3.9 1.2 1.5 2.1 1.5 1.4 0 2.3-.9 2.3-2.5v-.6h-.1c-.6.6-1.4 1-2.2 1-2.2-.1-3.9-1.9-4-4-.1-2.3 1.7-4.3 4-4.5.9 0 1.7.4 2.2 1h.1V22h1.7v7.6zm.2-16.6h-.8v-2.7h-3V13h-.8V7h.8v2.6h3V7h.8zm3 17h-1.9V17.5h1.9zm5.1-1.5q1.35 0 2.1-1.2l1.4 1c-.8 1.2-2.1 1.9-3.5 1.9h-.2c-2.3 0-4.1-2-4.1-4.2v-.3c0-2.2 1.8-4 4-4 1.7.1 3.1 1.1 3.6 2.7l.2.4-5.7 2.4c.5.9 1.3 1.4 2.2 1.3m5.1-16.3c-1.2-1.2-1.2-3.2 0-4.4s3.2-1.2 4.4 0 1.2 3.2 0 4.4-3.2 1.2-4.4 0m7.1 13.1h-2.6V30h-1.9V17.5h5.1c2.1.2 3.8 2 3.6 4.2s-2 3.7-4.2 3.6m7 4.7h-1.9V17.5h1.9zm8.4 0h-1.8v-1h-.1c-.5.8-1.4 1.3-2.4 1.2h-.1c-1.6.1-2.9-1.2-3-2.8 0-1.8 1.8-2.8 3.6-2.8.7 0 1.3.2 2 .5V25c-.1-1-1-1.7-2-1.6-.7-.1-1.4.3-1.7.9l-1.7-.7c.6-1.2 1.9-2 3.3-1.9 2.1 0 3.8 1.3 3.8 3.5V30zm3.5 3.8h-2l1.9-4.2-3.3-7.6h2l2.2 5.4h.1l2.1-5.4h2.1z"
  />
  <path
    d="M89.5 23.4s-.1 0 0 0c-1.3.1-2.3 1.2-2.2 2.5l3.8-1.6c-.3-.6-1-.9-1.6-.9M67.8 23.4c-1.4.1-2.5 1.3-2.4 2.8s1.3 2.5 2.8 2.4h.1c1.4-.1 2.4-1.2 2.3-2.6v-.2c-.2-1.4-1.4-2.5-2.8-2.4M58.5 23.4c-1.4.1-2.5 1.3-2.4 2.8.1 1.4 1.3 2.5 2.8 2.4h.1c1.4-.1 2.4-1.2 2.3-2.6v-.2c-.2-1.4-1.4-2.5-2.8-2.4M45.7 11.7c.9-1 .9-2.5 0-3.4s-2.4-.9-3.3 0c-.9 1-.9 2.5 0 3.4s2.3.9 3.3 0M111.7 27.5c0 .8.8 1.1 1.5 1.1 1.1 0 2.1-.9 2.2-2-.5-.3-1.1-.4-1.7-.4-1 0-2 .3-2 1.3M77.4 23.4c-1.3.1-2.2 1.1-2.4 2.4-.1 1.4.9 2.7 2.4 2.8h.1c1.3-.1 2.3-1.3 2.2-2.6v-.1c.1-1.3-.9-2.4-2.3-2.5M103.9 9.5c.4-.4.4-1 0-1.4-.2-.2-.5-.3-.8-.3h-1.3v2.1h1.3c.3-.1.6-.2.8-.4"
  />
  <path
    d="M130 0H5C2.2 0 0 2.2 0 5v30c0 2.8 2.2 5 5 5h125c2.8 0 5-2.2 5-5V5c0-2.8-2.2-5-5-5m4.2 35c0 2.3-1.9 4.2-4.2 4.2H5C2.7 39.2.8 37.3.8 35V5C.8 2.7 2.7.8 5 .8h125c2.3 0 4.2 1.9 4.2 4.2z"
    fill="#a6a6a6"
  />
  <path
    d="M93 24.5c-.5-1.6-2-2.6-3.6-2.7-2.2 0-4 1.8-4 4v.3c0 2.3 1.8 4.2 4.1 4.2h.2c1.4 0 2.8-.7 3.5-1.9l-1.4-1c-.4.7-1.2 1.2-2.1 1.2s-1.7-.5-2.1-1.3l5.7-2.4zm-5.8 1.4c-.1-1.3.9-2.4 2.2-2.5.7 0 1.3.3 1.6.9zM82.6 17.5h1.9V30h-1.9zM121.6 27.4h-.1l-2.2-5.4h-2l3.4 7.6-1.9 4.2h1.9l5.1-11.8h-2.1zM113.4 21.7c-1.4-.1-2.7.6-3.4 1.9l1.7.7c.3-.6 1-1 1.7-.9 1-.1 1.9.6 2 1.6v.1c-.6-.3-1.3-.5-2-.5-1.8 0-3.6 1-3.6 2.8.1 1.6 1.4 2.8 3 2.8h.1c1 .1 1.9-.4 2.4-1.2h.1v1h1.8v-4.8c0-2.2-1.7-3.5-3.8-3.5m-.2 6.9c-.7 0-1.5-.3-1.5-1.1 0-1 1.1-1.3 2-1.3.6 0 1.2.1 1.7.4-.2 1.1-1.1 2-2.2 2M102.4 17.5h-5.1V30h1.9v-4.7h2.6c2.1.2 4-1.5 4.2-3.6s-1.5-4-3.6-4.2m-.6 6h-2.6v-4.3h2.6c1.2 0 2.1 1 2.1 2.1.1 1.3-.9 2.2-2.1 2.2M106.9 17.5h1.9V30h-1.9zM47.7 23.1v1.8H52c-.1.8-.4 1.6-1 2.3-.9.9-2.1 1.4-3.3 1.3-2.7 0-4.8-2.1-4.8-4.8s2.1-4.8 4.8-4.8c1.2 0 2.4.4 3.3 1.3l1.3-1.3c-1.2-1.2-2.8-1.9-4.5-1.9-3.6-.1-6.7 2.7-6.9 6.3-.1 3.6 2.7 6.7 6.3 6.9h.5c1.7.1 3.4-.6 4.6-1.9 1-1.2 1.6-2.7 1.6-4.2 0-.4 0-.8-.1-1.1zM59 21.7h-.1c-2.3 0-4.2 1.9-4.2 4.3 0 2.3 1.9 4.2 4.3 4.2 2.3 0 4.2-1.9 4.2-4.2-.1-2.3-1.9-4.2-4.2-4.3m-.1 6.9s-.1 0 0 0c-1.5.1-2.7-1-2.8-2.4s1-2.7 2.4-2.8 2.7 1 2.8 2.4v.2c0 1.4-1.1 2.5-2.4 2.6M79.6 22.7c-.6-.6-1.5-1-2.3-1-2.3.1-4.2 2.1-4 4.5.1 2.2 1.9 3.9 4 4 .9 0 1.7-.4 2.2-1h.1v.6c0 1.6-.9 2.5-2.3 2.5-1 0-1.8-.6-2.1-1.5l-1.6.7c.6 1.5 2.1 2.5 3.8 2.5 2.2 0 4-1.3 4-4.4V22h-1.7v.7zm.1 3.3c.1 1.3-.9 2.5-2.2 2.6h-.1c-1.4-.1-2.5-1.4-2.4-2.8.1-1.3 1.1-2.2 2.4-2.4 1.4.1 2.4 1.2 2.3 2.6M68.3 21.7h-.1c-2.3 0-4.2 1.9-4.2 4.3s1.9 4.2 4.3 4.2c2.3 0 4.2-1.9 4.2-4.2-.1-2.3-1.9-4.2-4.2-4.3m-.1 6.9c-1.5.1-2.7-1-2.8-2.4s1-2.7 2.4-2.8 2.7 1 2.8 2.4v.2c0 1.4-1 2.5-2.4 2.6M99.1 7.8c-1.2-1.2-3.2-1.2-4.4 0s-1.2 3.2 0 4.4 3.2 1.2 4.4 0 1.2-3.2 0-4.4m-3.8 3.9c-.9-1-.9-2.5 0-3.4s2.4-.9 3.3 0c.9 1 .9 2.5 0 3.4-1 .9-2.4.9-3.3 0M80.7 9.6h-3V7h-.8v6h.8v-2.7h3V13h.8V7h-.8zM60.7 7h-1.8v6h1.8c.8 0 1.6-.3 2.2-.8.6-.6.9-1.4.8-2.2 0-.8-.3-1.6-.8-2.2-.6-.5-1.4-.8-2.2-.8m1.7 4.7c-.4.4-1 .6-1.6.6h-1.1V7.8h1.4000000000000001c1.2.1 2 1.1 1.9 2.3 0 .5-.2 1.1-.6 1.6M71.8 9.6 74 7h-1l-2.7 3.1V7h-.8v6h.8v-1.7l.9-1.1 2 2.8h.9zM46.2 12.2c1.2-1.2 1.2-3.2 0-4.4s-3.2-1.2-4.4 0-1.2 3.2 0 4.4 3.2 1.2 4.4 0m-3.8-3.9c.9-.9 2.4-.9 3.3 0 .9 1 .9 2.5 0 3.4s-2.4.9-3.3 0c-.9-1-.9-2.4 0-3.4M101.8 10.6h1.3c.5 0 1-.2 1.3-.5l.1-.1c.7-.7.6-1.8-.1-2.5-.4-.3-.8-.5-1.3-.5h-2v6h.8zm0-2.9h1.3c.3 0 .6.1.8.3.4.4.4 1 0 1.4-.2.2-.5.3-.8.3h-1.3zM86.3 12.3h-2.7v-1.9h2.5v-.8h-2.5V7.7h2.7V7h-3.5v6h3.5zM88.8 13h.8V7.7h1.7V7h-4.1v.7h1.6zM49 8.1l3 4.9h.8V7H52v4.7L49.1 7h-.9v6h.8zM68.3 12.3h-2.7v-1.9h2.5v-.8h-2.5V7.7h2.7V7h-3.5v6h3.5zM55.5 13h.7V7.7h1.7V7h-4.1v.7h1.7z"
    fill="#fff"
  />
  <path
    d="m20.717 19.424-10.646 11.3.001.007a2.875 2.875 0 0 0 4.237 1.734l.034-.02 11.983-6.914z"
    fill="#e84436"
  />
  <path
    d="m31.488 17.5-.01-.007-5.174-3-5.828 5.188 5.849 5.848 5.146-2.97a2.878 2.878 0 0 0 .017-5.06"
    fill="#fbbc0c"
  />
  <path
    d="M10.07 9.277a2.8 2.8 0 0 0-.097.74v19.968q0 .385.098.739l11.012-11.01z"
    fill="#517cbe"
  />
  <path
    d="m20.796 20 5.51-5.508-11.97-6.94a2.88 2.88 0 0 0-4.265 1.722l-.001.003z"
    fill="#32a853"
  />
</svg>
