<svg
  xmlns="http://www.w3.org/2000/svg"
  width="48"
  height="32"
  viewBox="0 0 48 32"
>
  <g fill="none">
    <rect
      width="45.333"
      height="29.333"
      x="1.333"
      y="1.333"
      fill="#FFF"
      rx="2"
    />
    <path
      fill="#DDD"
      d="M44 1.333A2.67 2.67 0 0 1 46.667 4v24A2.67 2.67 0 0 1 44 30.667H4A2.67 2.67 0 0 1 1.333 28V4A2.67 2.67 0 0 1 4 1.333zM44 0H4a4.01 4.01 0 0 0-4 4v24a4.01 4.01 0 0 0 4 4h40a4.01 4.01 0 0 0 4-4V4a4.01 4.01 0 0 0-4-4"
    />
    <path
      fill="#DDD"
      d="M6.664 16.942h34.667v2.667H6.664zM6.664 23.091h34.667v2.667H6.664z"
    />
    <path
      fill="#FD6000"
      d="M6.664 12.737V5.816h.916v6.921zM9.086 12.737V7.723h.765v.713c.347-.54.955-.854 1.596-.826.286-.003.57.052.833.163.226.087.422.235.569.427.131.189.221.403.264.628q.06.412.048.826v3.083h-.85v-3.05a2.3 2.3 0 0 0-.1-.776.82.82 0 0 0-.351-.411 1.1 1.1 0 0 0-.593-.153 1.38 1.38 0 0 0-.937.344A1.7 1.7 0 0 0 9.936 10v2.738zm6.77 0L13.95 7.723h.897l1.077 3.003q.174.486.32 1.01.114-.396.317-.953l1.114-3.06h.874l-1.898 5.014zm3.126-2.507a2.58 2.58 0 0 1 .774-2.063c.439-.374 1-.572 1.577-.557a2.25 2.25 0 0 1 1.69.678c.46.511.696 1.185.657 1.872a3.3 3.3 0 0 1-.29 1.522c-.19.366-.484.666-.846.862a2.46 2.46 0 0 1-1.21.307 2.25 2.25 0 0 1-1.703-.675 2.7 2.7 0 0 1-.65-1.946m.873 0c-.039.516.11 1.029.42 1.443a1.4 1.4 0 0 0 2.111-.003c.312-.423.461-.944.42-1.468a2.07 2.07 0 0 0-.422-1.41 1.4 1.4 0 0 0-2.108-.002c-.31.413-.46.925-.42 1.44m4.826-3.437v-.977h.85v.977zm0 5.944V7.723h.85v5.014zm5.415-1.836.835.108a2.17 2.17 0 0 1-.7 1.353c-.386.33-.88.503-1.386.489a2.15 2.15 0 0 1-1.655-.673 2.73 2.73 0 0 1-.626-1.929 3.5 3.5 0 0 1 .27-1.42c.162-.389.45-.71.819-.914a2.43 2.43 0 0 1 1.196-.305c.48-.02.952.125 1.337.413.358.296.595.714.665 1.173l-.826.128a1.37 1.37 0 0 0-.418-.76 1.08 1.08 0 0 0-.725-.255 1.32 1.32 0 0 0-1.043.46 2.2 2.2 0 0 0-.401 1.457c-.045.52.092 1.038.387 1.468.248.3.62.47 1.01.458.308.01.607-.1.836-.307.247-.255.398-.59.425-.944m4.995.222.878.108a2.14 2.14 0 0 1-.77 1.195 2.61 2.61 0 0 1-3.18-.253 2.65 2.65 0 0 1-.644-1.9 2.77 2.77 0 0 1 .652-1.964 2.2 2.2 0 0 1 1.69-.699c.621-.02 1.22.23 1.643.685a2.72 2.72 0 0 1 .637 1.926q0 .075-.004.227h-3.74c-.001.464.165.913.468 1.265.27.289.652.449 1.048.439a1.3 1.3 0 0 0 .798-.245 1.63 1.63 0 0 0 .524-.784M32.3 9.749h2.8a1.7 1.7 0 0 0-.322-.95 1.3 1.3 0 0 0-1.053-.49 1.35 1.35 0 0 0-.984.392 1.55 1.55 0 0 0-.441 1.048"
    />
  </g>
</svg>
