<svg
  xmlns="http://www.w3.org/2000/svg"
  xml:space="preserve"
  width="48"
  height="32"
  viewBox="0 0 48 32"
>
  <path
    d="M43.999 32.028H4a4 4 0 0 1-4-4.002V4.03A4 4 0 0 1 4.001.028H44a4 4 0 0 1 4.001 4v23.998A4 4 0 0 1 44 32.028z"
    fill="#fff"
  />
  <path
    d="M43.999 1.428a2.604 2.604 0 0 1 2.601 2.6v23.998a2.604 2.604 0 0 1-2.601 2.602H4a2.604 2.604 0 0 1-2.6-2.602V4.03a2.604 2.604 0 0 1 2.601-2.601H44m0-1.4H4a4 4 0 0 0-4.001 4v23.998A4 4 0 0 0 4 32.029h40a4 4 0 0 0 4-4.003V4.03A4 4 0 0 0 43.999.028z"
    fill="#ddd"
  />
  <path
    d="M12.081 21.97v-1.002h.486v-.556h-.486v-.545h-.675v.545h-.277v.556h.273v1.022c0 .704.272 1.052.892 1.052.189 0 .293-.025.293-.025v-.586c-.055.005-.08.005-.124.005-.263 0-.382-.079-.382-.466m2.574-.54v1.577h.68v-1.498c0-.551-.154-1.161-.898-1.161a.8.8 0 0 0-.684.367V19.42h-.685v3.587h.685v-1.558c0-.278.183-.486.47-.486.234 0 .432.179.432.466zm2.153 1.641a.82.82 0 0 0 .695-.367v.303h.67v-2.595h-.685v1.558c0 .278-.179.486-.462.486-.233 0-.431-.178-.431-.466v-1.578h-.685v1.499c0 .55.159 1.16.898 1.16m1.954-2.659h.685v2.594h-.685zm.338-.232c.228 0 .401-.17.401-.393s-.173-.391-.402-.391c-.223 0-.396.168-.396.391s.173.392.396.392zm2.752 2.068c0-.928-1.23-.73-1.23-1.141 0-.129.11-.208.268-.208.243 0 .387.148.466.248l.452-.338c-.124-.203-.397-.461-.888-.461-.531 0-.943.288-.943.769 0 .922 1.226.769 1.226 1.166 0 .148-.124.233-.318.233a.74.74 0 0 1-.595-.283l-.402.357c.139.223.456.481.967.481.56 0 .997-.317.997-.823m3.468.759.779-2.595h-.745l-.461 1.841-.491-1.841h-.645l-.496 1.841-.456-1.841h-.744l.773 2.595h.764l.482-1.662.476 1.662zm1.492-2.827c.229 0 .402-.17.402-.393s-.173-.391-.402-.391c-.223 0-.396.168-.396.391s.173.392.396.392zm-.337.232h.685v2.594h-.685zm2.664-.064a.82.82 0 0 0-.695.367v-.303h-.67v2.595h.685v-1.558c0-.278.179-.486.461-.486.234 0 .432.179.432.466v1.578h.685v-1.498c0-.551-.16-1.161-.898-1.161m3.844 2.659-.982-1.419.912-1.176h-.768l-.834 1.092V19.42h-.684v3.587h.684v-1.34l.868 1.34zm1.487-2.659c-.738 0-1.27.585-1.27 1.37 0 .778.532 1.353 1.365 1.353.645 0 .992-.387 1.091-.57l-.45-.342a.76.76 0 0 1-.631.317c-.382 0-.66-.248-.675-.595h1.826q.006-.075.005-.15c0-.847-.457-1.383-1.26-1.383zm-.55 1.086c.03-.297.238-.526.56-.526a.53.53 0 0 1 .556.526zm2.267-2.014h.685v3.586h-.685zM16.65 27.189l-.64-1.971h-.36a411 411 0 0 1-.644 1.97l-.627-1.97h-.396l.806 2.395h.401l.64-1.903.636 1.903h.4l.811-2.395h-.396l-.63 1.97zm2.29-2.031c-.406 0-.724.16-.885.262l.147.267c.17-.101.41-.207.705-.207.354 0 .58.194.58.53v.295c-.096-.102-.327-.217-.63-.217-.54 0-.922.332-.922.788 0 .465.387.797.912.797.322 0 .525-.12.65-.263l.04.203h.314v-1.58c0-.511-.258-.875-.912-.875zm-.033 2.21c-.369 0-.604-.22-.604-.497 0-.28.235-.493.6-.493.358 0 .598.194.598.493 0 .29-.244.498-.594.498zm2.45-2.21c-.405 0-.723.16-.884.262l.147.267c.17-.101.41-.207.705-.207.354 0 .58.194.58.53v.295c-.096-.102-.327-.217-.63-.217-.54 0-.922.332-.922.788 0 .465.387.797.912.797.322 0 .525-.12.65-.263l.04.203h.314v-1.58c0-.511-.258-.875-.912-.875m-.032 2.21c-.369 0-.604-.22-.604-.497 0-.28.236-.493.6-.493.359 0 .598.194.598.493 0 .29-.244.498-.594.498zm1.962-1.75v-.4h-.36v2.395h.365v-1.147c0-.511.16-.944.709-.944v-.364c-.364 0-.631.22-.714.46m2.4-.46a.99.99 0 0 0-.848.446v-1.321h-.364v3.33h.35v-.378a.99.99 0 0 0 .834.438c.682 0 1.17-.52 1.17-1.253 0-.737-.465-1.262-1.142-1.262m-.051 2.188c-.498 0-.81-.42-.81-.922 0-.594.368-.935.82-.935.469 0 .81.387.81.935 0 .558-.36.922-.82.922m2.819-2.188c-.714 0-1.253.534-1.253 1.257 0 .728.53 1.258 1.248 1.258.719 0 1.253-.54 1.253-1.258s-.525-1.257-1.248-1.257m-.005 2.183c-.511 0-.875-.387-.875-.926 0-.525.36-.926.875-.926s.884.396.884.926c0 .534-.368.926-.884.926m2.86-2.183c-.364 0-.63.22-.714.46v-.4h-.359v2.395h.364v-1.147c0-.511.161-.944.71-.944v-.364zm2.312.447a1 1 0 0 0-.847-.447c-.677 0-1.151.525-1.151 1.262 0 .732.47 1.253 1.156 1.253.525 0 .773-.35.829-.438v.212c0 .534-.387.723-.843.723a1.5 1.5 0 0 1-.724-.198l-.128.286c.207.128.543.239.856.239.691 0 1.203-.309 1.203-1.216v-2.063h-.35v.387zm-.81 1.736c-.46 0-.82-.364-.82-.921 0-.548.345-.93.81-.93.457 0 .82.35.82.93 0 .516-.318.921-.81.921M24 3.503l-7.16 4.134v8.288h14.32V7.637zm6.396 11.657h-6.014v-3.168l6.014-3.472zm-6.778 0h-6.014V8.52l6.014 3.472zM24 11.33l-6.013-3.472L24 4.386l6.013 3.472z"
    fill="#1e1e1e"
  />
  <path d="m30.396 8.52-6.014 3.472v3.168h6.014z" fill="#bdea18" />
  <path d="M17.604 15.16h6.014v-3.168L17.604 8.52z" fill="#fc3f4d" />
  <path d="M17.987 7.858 24 11.329l6.013-3.471L24 4.386z" fill="#fff" />
</svg>
