<svg
  xmlns="http://www.w3.org/2000/svg"
  width="48"
  height="32"
  fill="none"
  viewBox="0 0 48 32"
>
  <rect width="47" height="31" x=".5" y=".5" fill="#fff" rx="3.5" />
  <rect width="47" height="31" x=".5" y=".5" stroke="#D0D1D3" rx="3.5" />
  <path
    fill="#fff"
    d="M10 5.488v21.024a1.83 1.83 0 0 0 1.83 1.83H24.39C33.884 28.342 38 23.025 38 15.976c0-7.022-4.116-12.318-13.609-12.318H11.83A1.83 1.83 0 0 0 10 5.488"
  />
  <path
    fill="#000"
    d="M24.388 26.661H13.463a1.76 1.76 0 0 1-1.756-1.756V7.095a1.76 1.76 0 0 1 1.756-1.756h10.925c10.362 0 11.91 6.664 11.91 10.637 0 6.893-4.23 10.685-11.91 10.685M13.463 5.924a1.173 1.173 0 0 0-1.171 1.171v17.81a1.173 1.173 0 0 0 1.171 1.17h10.925c7.302 0 11.324-3.586 11.324-10.1 0-8.744-7.095-10.05-11.324-10.05z"
  />
  <path
    fill="#C06"
    d="M18.405 8.82v15.53h6.76c6.142 0 8.804-3.47 8.804-8.366 0-4.69-2.662-8.334-8.804-8.334h-5.59a1.17 1.17 0 0 0-1.17 1.17"
  />
  <path
    fill="#fff"
    d="M31.293 13.887v3.025H33.1v.686h-2.623v-3.71zM28.577 13.887l1.388 3.71h-.846l-.281-.823h-1.389l-.29.824h-.824l1.403-3.71zm.047 2.276-.468-1.36h-.01l-.483 1.36zM25.782 13.887v.686h-1.958v.795h1.797v.634h-1.797v.91h2v.686H23.01v-3.71zM20.785 13.887a1.9 1.9 0 0 1 .667.115c.201.073.384.19.535.343.158.163.278.358.354.571.09.26.133.532.127.806a2.6 2.6 0 0 1-.104.748c-.063.217-.17.418-.314.593a1.5 1.5 0 0 1-.525.392c-.234.1-.486.149-.74.143h-1.6v-3.71zm-.058 3.025q.177 0 .343-.057a.76.76 0 0 0 .297-.19 1 1 0 0 0 .207-.345c.056-.168.083-.344.078-.52q.003-.256-.054-.507a1 1 0 0 0-.183-.387.8.8 0 0 0-.33-.247 1.3 1.3 0 0 0-.507-.086h-.581v2.339z"
  />
  <path
    fill="#000"
    d="M15.35 18.438a1.297 1.297 0 0 1 1.296 1.297v4.615a2.593 2.593 0 0 1-2.594-2.593v-2.023a1.296 1.296 0 0 1 1.298-1.296M15.35 17.454a1.711 1.711 0 1 0 0-3.423 1.711 1.711 0 0 0 0 3.423"
  />
</svg>
